<?xml version="1.0" encoding="UTF-8"?>
<svg version="1.1" xmlns="http://www.w3.org/2000/svg" width="82" height="102">
<path d="M0 0 C0.68651642 -0.00350464 1.37303284 -0.00700928 2.08035278 -0.01062012 C4.3499767 -0.01942318 6.61928891 -0.0135928 8.88891602 -0.00683594 C10.46688395 -0.00818316 12.04485148 -0.01012416 13.62281799 -0.01263428 C16.93071442 -0.01558373 20.23850285 -0.01129424 23.54638672 -0.00195312 C27.78450606 0.00943202 32.02237183 0.00288685 36.26048183 -0.00909805 C39.51957607 -0.01632946 42.77861032 -0.01402268 46.03770638 -0.00884247 C47.60020032 -0.00750903 49.16269973 -0.00914299 50.7251873 -0.01380157 C52.91068793 -0.01888685 55.09577977 -0.01112833 57.28125 0 C59.14631447 0.00238678 59.14631447 0.00238678 61.04905701 0.00482178 C64.06040447 0.24712833 65.75036235 0.54048337 68.20532227 2.25878906 C70.24938275 6.66830318 70.42384428 10.57260118 70.33032227 15.38378906 C70.31227539 16.58261719 70.29422852 17.78144531 70.27563477 19.01660156 C70.25243164 20.08652344 70.22922852 21.15644531 70.20532227 22.25878906 C70.20532227 25.79796029 70.21902972 29.3366175 70.23706055 32.87573242 C70.26980185 39.55932045 70.29224608 46.24290413 70.30894661 52.92655087 C70.31939813 56.96727265 70.33359743 61.00791047 70.35620117 65.04858398 C70.37795326 68.9629912 70.38989439 72.87731749 70.39507675 76.79178047 C70.39876445 78.28089235 70.40596562 79.76999991 70.41678238 81.25907707 C70.4313318 83.34363244 70.43329893 85.42785308 70.43237305 87.51245117 C70.43681427 88.69729599 70.44125549 89.88214081 70.4458313 91.10289001 C70.20331671 94.2851054 69.69035517 96.44477629 68.20532227 99.25878906 C61.73431637 103.51607563 54.2179766 102.67662832 46.73266602 102.62207031 C45.32214865 102.62155084 43.91163055 102.6220719 42.50111389 102.62358093 C39.55499362 102.62349156 36.60914898 102.61313256 33.66308594 102.5949707 C29.89831235 102.57226374 26.13394005 102.57174695 22.36911678 102.57848835 C19.45993013 102.58183894 16.55083396 102.57517812 13.64166451 102.56535912 C12.25387611 102.56152719 10.86607761 102.56035052 9.47828484 102.56194496 C7.53563024 102.56231827 5.59298951 102.54816328 3.65039062 102.53344727 C2.5478746 102.52883987 1.44535858 102.52423248 0.30943298 102.51948547 C-3.18252891 102.22621567 -5.65778616 101.85876757 -8.79467773 100.25878906 C-11.7348027 95.30410128 -12.22809245 90.91486179 -12.16699219 85.18725586 C-12.17064285 84.41225739 -12.17429352 83.63725891 -12.17805481 82.83877563 C-12.18611288 80.29495836 -12.17258629 77.75178789 -12.15795898 75.20800781 C-12.15743965 73.42592876 -12.15796019 71.64384912 -12.1594696 69.86177063 C-12.15938008 66.13212495 -12.14899454 62.40269631 -12.13085938 58.6730957 C-12.10822268 53.91553189 -12.10762142 49.1582862 -12.11437702 44.4006834 C-12.11773545 40.72100549 -12.11105097 37.04139875 -12.10124779 33.36173439 C-12.09742402 31.60882758 -12.09623573 29.8559128 -12.09783363 28.10300255 C-12.10092507 7.8144797 -12.10092507 7.8144797 -9.79467773 2.25878906 C-6.13198814 -0.183004 -4.36640525 0.0055914 0 0 Z M16.20532227 10.25878906 C15.87532227 10.91878906 15.54532227 11.57878906 15.20532227 12.25878906 C15.86532227 12.25878906 16.52532227 12.25878906 17.20532227 12.25878906 C17.20532227 12.91878906 17.20532227 13.57878906 17.20532227 14.25878906 C17.86532227 14.25878906 18.52532227 14.25878906 19.20532227 14.25878906 C19.20532227 13.26878906 19.20532227 12.27878906 19.20532227 11.25878906 C18.21532227 10.92878906 17.22532227 10.59878906 16.20532227 10.25878906 Z M30.20532227 10.25878906 C29.87532227 12.56878906 29.54532227 14.87878906 29.20532227 17.25878906 C30.19532227 17.75378906 30.19532227 17.75378906 31.20532227 18.25878906 C32.28426758 17.55496094 32.28426758 17.55496094 33.38500977 16.83691406 C36.92144085 14.85808005 39.30429568 14.92331079 43.33032227 15.00878906 C45.15950195 15.03199219 45.15950195 15.03199219 47.02563477 15.05566406 C50.20532227 15.25878906 50.20532227 15.25878906 53.20532227 16.25878906 C54.87353549 15.93328404 56.54031784 15.60032843 58.20532227 15.25878906 C58.86532227 15.58878906 59.52532227 15.91878906 60.20532227 16.25878906 C60.20532227 14.60878906 60.20532227 12.95878906 60.20532227 11.25878906 C57.38708035 9.8496681 55.03280945 10.14695353 51.88500977 10.16113281 C49.99975586 10.1659668 49.99975586 10.1659668 48.07641602 10.17089844 C46.75770508 10.17927734 45.43899414 10.18765625 44.08032227 10.19628906 C42.74048015 10.20130417 41.40063626 10.20586706 40.06079102 10.20996094 C36.7755902 10.22177821 33.49047829 10.23825289 30.20532227 10.25878906 Z M-1.79467773 11.25878906 C-1.79467773 12.24878906 -1.79467773 13.23878906 -1.79467773 14.25878906 C-0.14467773 13.59878906 1.50532227 12.93878906 3.20532227 12.25878906 C3.20532227 11.92878906 3.20532227 11.59878906 3.20532227 11.25878906 C1.55532227 11.25878906 -0.09467773 11.25878906 -1.79467773 11.25878906 Z M59.20532227 27.25878906 C58.79282227 28.37253906 58.38032227 29.48628906 57.95532227 30.63378906 C56.84985711 33.25199601 56.45651439 34.09371995 54.01782227 35.69628906 C53.12063477 35.97472656 53.12063477 35.97472656 52.20532227 36.25878906 C54.84532227 36.58878906 57.48532227 36.91878906 60.20532227 37.25878906 C60.20532227 33.95878906 60.20532227 30.65878906 60.20532227 27.25878906 C59.87532227 27.25878906 59.54532227 27.25878906 59.20532227 27.25878906 Z M30.20532227 32.25878906 C29.87532227 33.24878906 29.54532227 34.23878906 29.20532227 35.25878906 C31.68032227 35.75378906 31.68032227 35.75378906 34.20532227 36.25878906 C34.20532227 35.59878906 34.20532227 34.93878906 34.20532227 34.25878906 C32.88532227 33.59878906 31.56532227 32.93878906 30.20532227 32.25878906 Z M46.20532227 32.25878906 C44.88532227 33.57878906 43.56532227 34.89878906 42.20532227 36.25878906 C45.17532227 36.25878906 48.14532227 36.25878906 51.20532227 36.25878906 C49.55532227 34.93878906 47.90532227 33.61878906 46.20532227 32.25878906 Z M-0.79467773 37.25878906 C-1.12467773 38.24878906 -1.45467773 39.23878906 -1.79467773 40.25878906 C-1.46467773 40.91878906 -1.13467773 41.57878906 -0.79467773 42.25878906 C5.80532227 42.25878906 12.40532227 42.25878906 19.20532227 42.25878906 C19.20532227 40.60878906 19.20532227 38.95878906 19.20532227 37.25878906 C17.03657975 37.76482898 15.205646 38.2586272 13.20532227 39.25878906 C8.02831994 39.56331861 4.06203652 38.84465494 -0.79467773 37.25878906 Z M49.20532227 55.25878906 C49.20532227 57.23878906 49.20532227 59.21878906 49.20532227 61.25878906 C52.83532227 61.25878906 56.46532227 61.25878906 60.20532227 61.25878906 C60.20532227 59.27878906 60.20532227 57.29878906 60.20532227 55.25878906 C56.57532227 55.25878906 52.94532227 55.25878906 49.20532227 55.25878906 Z M53.01782227 80.69628906 C51.75969727 80.88191406 50.50157227 81.06753906 49.20532227 81.25878906 C48.87532227 83.89878906 48.54532227 86.53878906 48.20532227 89.25878906 C41.93532227 89.25878906 35.66532227 89.25878906 29.20532227 89.25878906 C29.53532227 89.91878906 29.86532227 90.57878906 30.20532227 91.25878906 C40.10532227 91.25878906 50.00532227 91.25878906 60.20532227 91.25878906 C60.20532227 87.95878906 60.20532227 84.65878906 60.20532227 81.25878906 C57.21000687 80.2603506 56.03276494 80.25146145 53.01782227 80.69628906 Z M-0.79467773 89.25878906 C-0.79467773 89.91878906 -0.79467773 90.57878906 -0.79467773 91.25878906 C5.80532227 91.25878906 12.40532227 91.25878906 19.20532227 91.25878906 C19.20532227 90.59878906 19.20532227 89.93878906 19.20532227 89.25878906 C12.60532227 89.25878906 6.00532227 89.25878906 -0.79467773 89.25878906 Z " fill="#060606" transform="translate(11.794677734375,-0.2587890625)"/>
<path d="M0 0 C0.33 0.99 0.66 1.98 1 3 C1.66 3 2.32 3 3 3 C2.34 4.32 1.68 5.64 1 7 C0.01 7 -0.98 7 -2 7 C-1.125 1.125 -1.125 1.125 0 0 Z " fill="#3D3D3D" transform="translate(72,60)"/>
</svg>
