<?xml version="1.0" encoding="UTF-8"?>
<svg version="1.1" xmlns="http://www.w3.org/2000/svg" width="318" height="325">
<path d="M0 0 C1.72330152 1.48277937 3.43136351 2.9834255 5.125 4.5 C5.85493164 5.14171143 5.85493164 5.14171143 6.59960938 5.79638672 C37.98719896 33.41468085 59.1338478 72.90660711 61.99609375 115.01464844 C64.46214059 162.56077887 51.04137711 206.33960152 19.2421875 242.125 C3.50279168 259.39201407 -24.83864153 283.70714026 -49.1875 285 C-53.64054168 284.39619774 -54.95556411 283.92252083 -57.875 280.5 C-58.6317963 276.57016047 -58.5478973 272.67488905 -58.51171875 268.68359375 C-58.52209671 267.51675552 -58.53247467 266.3499173 -58.54316711 265.14772034 C-58.57289853 261.410683 -58.56947451 257.67463432 -58.5625 253.9375 C-58.57142681 250.22563776 -58.58755443 246.5140408 -58.6139679 242.80226135 C-58.6287363 240.49382423 -58.63277451 238.18528421 -58.62419128 235.8768158 C-58.65504181 227.05152605 -59.06859813 217.93252686 -63.3125 210 C-63.72371094 209.2059375 -64.13492188 208.411875 -64.55859375 207.59375 C-65.79122075 205.46024811 -65.79122075 205.46024811 -67.53515625 203.84375 C-68.875 202.5 -68.875 202.5 -68.875 200.5 C-67.740625 200.2525 -66.60625 200.005 -65.4375 199.75 C-64.62023437 199.56566406 -63.80296875 199.38132813 -62.9609375 199.19140625 C-61.2998613 198.81924108 -59.63822945 198.44935032 -57.97363281 198.09326172 C-44.08246463 195.11940566 -32.29691297 191.29712866 -20.875 182.5 C-19.823125 181.736875 -18.77125 180.97375 -17.6875 180.1875 C-3.25331607 166.39483536 1.95306 145.23656101 2.41772461 125.85400391 C2.5517222 109.90332768 -0.41666941 94.41002305 -11.10546875 81.88671875 C-12.875 79.5 -12.875 79.5 -13.08203125 77.4375 C-12.88673828 76.4784375 -12.88673828 76.4784375 -12.6875 75.5 C-12.57019531 74.860625 -12.45289063 74.22125 -12.33203125 73.5625 C-12.00632116 72.09262882 -11.67498015 70.62400064 -11.33984375 69.15625 C-9.73329352 59.97596295 -10.84214026 51.06782061 -13.21875 42.14453125 C-13.875 39.5 -13.875 39.5 -13.875 36.5 C-27.32389022 37.52968066 -38.69464647 41.68599158 -49.6875 49.5 C-55.50601327 53.32751758 -59.2307459 52.84298753 -65.875 51.5 C-85.36149555 48.01145094 -103.73994243 47.31863304 -123.296875 50.74609375 C-124.04420898 50.86887695 -124.79154297 50.99166016 -125.56152344 51.11816406 C-127.17281529 51.38410544 -128.78019457 51.67441468 -130.38378906 51.98339844 C-137.12892544 53.04869149 -140.59896143 51.69919086 -146.125 47.875 C-156.34863415 41.35520218 -166.52055937 36.81313098 -178.875 36.5 C-179.18876521 38.04140966 -179.50094465 39.58314215 -179.8125 41.125 C-180.07353516 42.41277344 -180.07353516 42.41277344 -180.33984375 43.7265625 C-182.25108137 53.63151659 -183.18252332 63.73987402 -180.21484375 73.53515625 C-179.37157161 78.41062621 -181.42244482 81.66729546 -184.125 85.5625 C-195.91183407 103.56949086 -197.23534092 123.77126495 -193.28759766 144.54150391 C-189.65169048 161.65428987 -181.30756439 177.15684096 -166.51171875 186.91015625 C-153.62303788 194.68155346 -138.56076806 197.85174674 -123.875 200.5 C-124.4525 201.49 -125.03 202.48 -125.625 203.5 C-128.75343677 209.00516436 -131.56012509 214.13273121 -133.0625 220.3125 C-133.90126359 222.89092142 -134.3615426 224.14417286 -136.60546875 225.69921875 C-145.34751778 228.963554 -157.11814193 230.12515092 -165.875 226.5 C-174.14194254 222.15920728 -178.69522098 216.06291265 -183.875 208.5 C-189.24404832 201.35336135 -194.88598104 196.62655267 -203.75 194.625 C-206.90712413 194.31410132 -206.90712413 194.31410132 -209.875 195.5 C-208.43989177 199.00044917 -206.76580447 200.54169396 -203.6875 202.6875 C-195.92423725 208.6029574 -191.8298911 215.29074225 -187.875 224.0625 C-182.54707149 235.78191931 -177.05890702 241.53364016 -164.875 246.5 C-161.47646803 247.56976255 -158.34978512 247.61507248 -154.796875 247.59765625 C-153.05664062 247.59282227 -153.05664062 247.59282227 -151.28125 247.58789062 C-150.0746875 247.57951172 -148.868125 247.57113281 -147.625 247.5625 C-146.40296875 247.55798828 -145.1809375 247.55347656 -143.921875 247.54882812 C-140.90620054 247.53704815 -137.89062502 247.52059853 -134.875 247.5 C-134.7512291 252.1263658 -134.66058484 256.75176461 -134.6003418 261.37939453 C-134.57522552 262.95280751 -134.54112528 264.52610412 -134.49780273 266.09912109 C-134.43701601 268.36324772 -134.40876418 270.62583022 -134.38671875 272.890625 C-134.36091232 273.59181458 -134.3351059 274.29300415 -134.30851746 275.01544189 C-134.30640019 278.71778445 -134.600969 280.20878026 -137.17529297 282.94458008 C-140.83424738 285.05266459 -143.8135375 285.19602214 -147.875 284.5 C-151.35571284 283.44982824 -154.62519767 282.0544375 -157.9375 280.5625 C-158.85853516 280.15572021 -159.77957031 279.74894043 -160.72851562 279.32983398 C-199.51230352 261.81707798 -229.22573 228.85956008 -244.69580078 189.40673828 C-259.61682106 149.65641899 -259.49471546 102.52249219 -241.8515625 63.59033203 C-232.77503378 44.1620223 -221.72896509 27.92435735 -206.875 12.5 C-206.28589844 11.85933594 -205.69679687 11.21867187 -205.08984375 10.55859375 C-153.00395067 -44.59870335 -57.75507629 -46.32006836 0 0 Z " fill="#030303" transform="translate(254.875,33.5)"/>
<path d="M0 0 C1.72330152 1.48277937 3.43136351 2.9834255 5.125 4.5 C5.61162109 4.92780762 6.09824219 5.35561523 6.59960938 5.79638672 C37.98719896 33.41468085 59.1338478 72.90660711 61.99609375 115.01464844 C64.46214059 162.56077887 51.04137711 206.33960152 19.2421875 242.125 C3.50279168 259.39201407 -24.83864153 283.70714026 -49.1875 285 C-53.65376841 284.39440428 -54.96606848 283.95452986 -57.875 280.5 C-58.59220403 276.43451125 -58.45482 272.41345762 -58.36328125 268.296875 C-58.35266914 266.50748505 -58.35266914 266.50748505 -58.34184265 264.6819458 C-58.31384739 260.87066016 -58.25109402 257.06084186 -58.1875 253.25 C-58.16242401 250.66668788 -58.13960963 248.08335274 -58.11914062 245.5 C-58.06400356 239.16616576 -57.98032385 232.8331877 -57.875 226.5 C-57.545 226.5 -57.215 226.5 -56.875 226.5 C-56.86691315 227.15954681 -56.85882629 227.81909363 -56.85049438 228.49862671 C-56.76464428 235.34401207 -56.66514997 242.18910129 -56.55761719 249.03417969 C-56.5192602 251.59109537 -56.48441938 254.14806625 -56.453125 256.70507812 C-56.40762024 260.37389909 -56.3496019 264.04233773 -56.2890625 267.7109375 C-56.27173569 269.4344191 -56.27173569 269.4344191 -56.25405884 271.19271851 C-56.2242543 272.78414169 -56.2242543 272.78414169 -56.19384766 274.40771484 C-56.17386215 275.81336197 -56.17386215 275.81336197 -56.1534729 277.24740601 C-56.08465534 279.70035151 -56.08465534 279.70035151 -53.875 281.5 C-33.62794689 283.02120716 -10.87255785 265.44393624 3.82470703 253.06884766 C35.05114252 226.16186474 54.62644594 188.19884785 58.92431641 147.2121582 C62.18932312 103.08690319 51.62205321 60.44951543 22.9609375 25.890625 C20.74470883 23.3600948 18.45472995 20.92633757 16.125 18.5 C15.66818848 18.00677246 15.21137695 17.51354492 14.74072266 17.00537109 C-4.94865893 -4.23929519 -29.7099444 -16.4725672 -56.875 -25.5 C-57.91011719 -25.84675781 -58.94523438 -26.19351562 -60.01171875 -26.55078125 C-71.5212288 -29.37869929 -82.91359093 -29.83993708 -94.6875 -29.75 C-95.43678772 -29.74623352 -96.18607544 -29.74246704 -96.95806885 -29.73858643 C-131.45120502 -29.53527977 -163.4656133 -20.00326695 -190.875 1.5 C-191.77605469 2.19738281 -192.67710937 2.89476562 -193.60546875 3.61328125 C-202.92867167 11.01661446 -211.31128433 19.30088635 -218.875 28.5 C-218.875 24.14409496 -216.17608232 22.23034236 -213.3125 19.25 C-212.75747803 18.66371826 -212.20245605 18.07743652 -211.63061523 17.47338867 C-210.5329564 16.31730788 -209.43189013 15.16445108 -208.32714844 14.01513672 C-207.1972616 12.83624 -206.0835748 11.64180848 -204.9765625 10.44140625 C-152.9205754 -44.65338213 -57.67038392 -46.25214435 0 0 Z " fill="#DEDEDE" transform="translate(254.875,33.5)"/>
<path d="M0 0 C14.10134239 -0.95602321 29.01113854 5.51441892 39.90625 14.359375 C44.20206905 16.63746086 47.12173717 15.47870105 51.5625 14.25 C61.85867545 11.87417708 71.92352271 11.50052743 82.4375 11.5 C83.24236847 11.49834839 84.04723694 11.49669678 84.87649536 11.49499512 C94.72841056 11.51132446 103.8773823 12.20562696 113.5 14.5 C118.53006705 15.68194878 121.77994109 16.42403713 126.75390625 14.6953125 C130.02521171 12.6483327 132.9625727 10.37537247 136 8 C146.00954991 2.7041834 154.65618852 -0.41084227 166 0 C166 0.66 166 1.32 166 2 C165.175 2.06316406 164.35 2.12632813 163.5 2.19140625 C151.04163183 3.51232698 140.39932389 7.74116792 130.1875 15 C124.36898673 18.82751758 120.6442541 18.34298753 114 17 C94.51350445 13.51145094 76.13505757 12.81863304 56.578125 16.24609375 C55.83079102 16.36887695 55.08345703 16.49166016 54.31347656 16.61816406 C52.70218471 16.88410544 51.09480543 17.17441468 49.49121094 17.48339844 C42.74607456 18.54869149 39.27603857 17.19919086 33.75 13.375 C23.52636585 6.85520218 13.35444063 2.31313098 1 2 C0.68623479 3.54140966 0.37405535 5.08314215 0.0625 6.625 C-0.19853516 7.91277344 -0.19853516 7.91277344 -0.46484375 9.2265625 C-2.37608137 19.13151659 -3.30752332 29.23987402 -0.33984375 39.03515625 C0.50342839 43.91062621 -1.54744482 47.16729546 -4.25 51.0625 C-16.03683407 69.06949086 -17.36034092 89.27126495 -13.41259766 110.04150391 C-9.77669048 127.15428987 -1.43256439 142.65684096 13.36328125 152.41015625 C26.25196212 160.18155346 41.31423194 163.35174674 56 166 C55.4225 166.99 54.845 167.98 54.25 169 C51.12156323 174.50516436 48.31487491 179.63273121 46.8125 185.8125 C45.97373641 188.39092142 45.5134574 189.64417286 43.26953125 191.19921875 C34.56869203 194.448166 22.70788476 195.67218628 14 192 C8.49244701 188.82130844 3.57120313 185.35680469 0 180 C0.33 179.34 0.66 178.68 1 178 C1.32871094 178.44730469 1.65742187 178.89460937 1.99609375 179.35546875 C6.62359961 185.23704123 12.49155556 189.63735638 20 191 C32.02438836 191.97057306 32.02438836 191.97057306 43 188 C44.49985222 185.07528817 45.32053504 182.28085964 46.12890625 179.09765625 C47.34642126 174.76810734 49.45396291 171.67760913 52 168 C49.36352204 166.68176102 46.92339681 166.51800382 44 166.125 C27.51361512 163.60249302 12.64372944 157.18113233 1 145 C0.4534375 144.484375 -0.093125 143.96875 -0.65625 143.4375 C-12.20182756 131.64627186 -17.42566988 112.0582702 -18 96 C-18.06316406 94.73800781 -18.12632813 93.47601563 -18.19140625 92.17578125 C-18.70937454 77.5270964 -16.35736578 60.76447328 -6.46875 49.2109375 C-6.0046875 48.72882813 -5.540625 48.24671875 -5.0625 47.75 C-2.58787296 45.04736371 -2.58787296 45.04736371 -3.125 41.0625 C-3.39419852 39.7036884 -3.6852368 38.34898515 -4 37 C-6.14684242 24.35748353 -5.1137201 11.87272407 0 0 Z " fill="#DADADA" transform="translate(75,68)"/>
<path d="M0 0 C-0.33 0.99 -0.66 1.98 -1 3 C-1.63164062 2.5153125 -2.26328125 2.030625 -2.9140625 1.53125 C-18.8513877 -10.41026168 -36.18282542 -17.74671705 -55 -24 C-56.03511719 -24.34675781 -57.07023438 -24.69351562 -58.13671875 -25.05078125 C-69.6462288 -27.87869929 -81.03859093 -28.33993708 -92.8125 -28.25 C-93.56178772 -28.24623352 -94.31107544 -28.24246704 -95.08306885 -28.23858643 C-129.57620502 -28.03527977 -161.5906133 -18.50326695 -189 3 C-189.90105469 3.69738281 -190.80210937 4.39476562 -191.73046875 5.11328125 C-201.05367167 12.51661446 -209.43628433 20.80088635 -217 30 C-217 25.64409496 -214.30108232 23.73034236 -211.4375 20.75 C-210.88247803 20.16371826 -210.32745605 19.57743652 -209.75561523 18.97338867 C-208.6579564 17.81730788 -207.55689013 16.66445108 -206.45214844 15.51513672 C-205.3222616 14.33624 -204.2085748 13.14180848 -203.1015625 11.94140625 C-151.95363001 -42.19231925 -57.36521004 -45.20138278 0 0 Z " fill="#C4C4C4" transform="translate(253,32)"/>
<path d="M0 0 C8.21285102 0.11715907 14.19505193 3.77168632 20 9.375 C22.60153525 12.16612081 25.00763558 14.85064064 26.5625 18.375 C26.2325 19.035 25.9025 19.695 25.5625 20.375 C25.12679687 19.78332031 24.69109375 19.19164062 24.2421875 18.58203125 C18.41372347 10.84859305 12.77738891 4.6390452 2.875 2.625 C-0.43780988 2.16025514 -0.43780988 2.16025514 -3.4375 3.375 C-2.00239177 6.87544917 -0.32830447 8.41669396 2.75 10.5625 C10.51326275 16.4779574 14.6076089 23.16574225 18.5625 31.9375 C23.89042851 43.65691931 29.37859298 49.40864016 41.5625 54.375 C44.96103197 55.44476255 48.08771488 55.49007248 51.640625 55.47265625 C53.38085938 55.46782227 53.38085938 55.46782227 55.15625 55.46289062 C56.3628125 55.45451172 57.569375 55.44613281 58.8125 55.4375 C60.03453125 55.43298828 61.2565625 55.42847656 62.515625 55.42382812 C65.53129946 55.41204815 68.54687498 55.39559853 71.5625 55.375 C71.6862709 60.0013658 71.77691516 64.62676461 71.8371582 69.25439453 C71.86227448 70.82780751 71.89637472 72.40110412 71.93969727 73.97412109 C72.00048399 76.23824772 72.02873582 78.50083022 72.05078125 80.765625 C72.07658768 81.46681458 72.1023941 82.16800415 72.12898254 82.89044189 C72.13109981 86.59278445 71.836531 88.08378026 69.26220703 90.81958008 C65.60325262 92.92766459 62.6239625 93.07102214 58.5625 92.375 C55.08178716 91.32482824 51.81230233 89.9294375 48.5 88.4375 C47.57896484 88.03072021 46.65792969 87.62394043 45.70898438 87.20483398 C33.0202655 81.47526372 15.510202 73.296553 7.5625 61.375 C11.38646754 63.07246852 14.59349216 65.52773657 17.9375 68 C27.69555889 75.05712204 37.96138402 80.79748193 48.875 85.875 C49.60364258 86.22578613 50.33228516 86.57657227 51.08300781 86.93798828 C55.97757794 89.13688556 61.20656623 90.7813253 66.5625 89.375 C69.03290709 87.07431554 69.52897775 85.61660249 69.99487305 82.25878906 C70.02105713 81.06479492 70.04724121 79.87080078 70.07421875 78.640625 C70.12739258 76.69736328 70.12739258 76.69736328 70.18164062 74.71484375 C70.20473867 73.35156774 70.22752114 71.98828636 70.25 70.625 C70.28318648 69.24606138 70.31767738 67.8671535 70.35351562 66.48828125 C70.43602291 63.11726941 70.50516771 59.74651872 70.5625 56.375 C69.5725 56.87 69.5725 56.87 68.5625 57.375 C64.27825791 57.73056465 59.98454485 57.74649666 55.6875 57.8125 C54.50929687 57.85826172 53.33109375 57.90402344 52.1171875 57.95117188 C41.46647277 58.08606529 33.43541923 54.88404142 25.3125 48 C20.82374592 43.15809342 18.30107176 37.25476386 15.48828125 31.35546875 C11.24599086 22.48484165 6.79538967 15.89351541 -1.203125 10.03125 C-3.16010763 8.58061952 -4.87194608 7.23924513 -6.4375 5.375 C-5.88174065 0.65104555 -4.50455166 0.18271192 0 0 Z " fill="#DFDFDF" transform="translate(48.4375,225.625)"/>
<path d="M0 0 C4.50982764 2.85329425 8.41946094 5.98176281 12.3125 9.625 C12.88154053 10.15714111 13.45058105 10.68928223 14.03686523 11.23754883 C42.94877387 38.55707724 62.11329201 77.99565507 64 118 C64.66704811 141.69120333 64.66704811 141.69120333 63 151 C62.67 151 62.34 151 62 151 C61.9906543 149.93378418 61.98130859 148.86756836 61.97167969 147.76904297 C61.966095 118.60873395 61.966095 118.60873395 57 90 C56.7436377 89.05769531 56.48727539 88.11539063 56.22314453 87.14453125 C47.87474004 57.59436615 32.69982925 33.75606988 11.25 12.125 C10.70690186 11.57706787 10.16380371 11.02913574 9.60424805 10.46459961 C7.18328976 8.05405885 4.80886848 5.85071078 2.109375 3.7421875 C1.41328125 3.16726562 0.7171875 2.59234375 0 2 C0 1.34 0 0.68 0 0 Z " fill="#ECECEC" transform="translate(253,33)"/>
<path d="M0 0 C4.28364143 0.60065821 7.3589408 2.16278647 11.125 4.25 C22.50109994 10.24856003 35.42735298 12.73280136 48 15 C47.4225 15.99 46.845 16.98 46.25 18 C43.12156323 23.50516436 40.31487491 28.63273121 38.8125 34.8125 C37.97373641 37.39092142 37.5134574 38.64417286 35.26953125 40.19921875 C26.56869203 43.448166 14.70788476 44.67218628 6 41 C0.49244701 37.82130844 -4.42879687 34.35680469 -8 29 C-7.67 28.34 -7.34 27.68 -7 27 C-6.67128906 27.44730469 -6.34257813 27.89460938 -6.00390625 28.35546875 C-1.37640039 34.23704123 4.49155556 38.63735638 12 40 C24.02438836 40.97057306 24.02438836 40.97057306 35 37 C36.49985222 34.07528817 37.32053504 31.28085964 38.12890625 28.09765625 C39.34642126 23.76810734 41.45396291 20.67760913 44 17 C41.36352204 15.68176102 38.92339681 15.51800382 36 15.125 C26.70492776 13.70280315 18.97104734 11.14747819 10.5625 7 C9.86342529 6.65565918 9.16435059 6.31131836 8.4440918 5.95654297 C5.15349486 4.28216145 2.51188285 2.69563259 0 0 Z " fill="#E0E0E0" transform="translate(83,219)"/>
<path d="M0 0 C8.21285102 0.11715907 14.19505193 3.77168632 20 9.375 C22.60153525 12.16612081 25.00763558 14.85064064 26.5625 18.375 C26.2325 19.035 25.9025 19.695 25.5625 20.375 C25.12679687 19.78332031 24.69109375 19.19164062 24.2421875 18.58203125 C18.41372347 10.84859305 12.77738891 4.6390452 2.875 2.625 C-0.43780988 2.16025514 -0.43780988 2.16025514 -3.4375 3.375 C-2.00239177 6.87544917 -0.32830447 8.41669396 2.75 10.5625 C11.24386311 17.03466087 15.30038755 24.63394433 19.5690918 34.19116211 C22.11198134 39.75749213 25.05716799 44.17408231 29.5625 48.375 C30.2225 49.035 30.8825 49.695 31.5625 50.375 C26.80992914 49.61795331 24.75948757 46.97160457 21.7109375 43.44140625 C18.65269547 39.0764608 16.59845358 34.39642308 14.4206543 29.54931641 C10.55298725 20.99014551 6.25617929 15.47524003 -1.38671875 9.91796875 C-3.26640053 8.50373199 -4.91674509 7.16958859 -6.4375 5.375 C-5.88174065 0.65104555 -4.50455166 0.18271192 0 0 Z " fill="#E6E6E6" transform="translate(48.4375,225.625)"/>
<path d="M0 0 C4.50982764 2.85329425 8.41946094 5.98176281 12.3125 9.625 C12.88154053 10.15714111 13.45058105 10.68928223 14.03686523 11.23754883 C26.42085436 22.9394654 36.62659439 36.36214896 44.8125 51.3125 C45.15611572 51.92826904 45.49973145 52.54403809 45.85375977 53.1784668 C48.10247318 57.46906714 48.10247318 57.46906714 47.5769043 60.19213867 C47.38652588 60.78873291 47.19614746 61.38532715 47 62 C46.74943848 61.49774902 46.49887695 60.99549805 46.24072266 60.47802734 C36.88527118 41.86470961 25.93675249 26.93584842 11.25 12.125 C10.70690186 11.57706787 10.16380371 11.02913574 9.60424805 10.46459961 C7.18328976 8.05405885 4.80886848 5.85071078 2.109375 3.7421875 C1.41328125 3.16726562 0.7171875 2.59234375 0 2 C0 1.34 0 0.68 0 0 Z " fill="#E9E9E9" transform="translate(253,33)"/>
<path d="M0 0 C0.33 0 0.66 0 1 0 C1.00808685 0.65954681 1.01617371 1.31909363 1.02450562 1.99862671 C1.11035572 8.84401207 1.20985003 15.68910129 1.31738281 22.53417969 C1.3557398 25.09109537 1.39058062 27.64806625 1.421875 30.20507812 C1.46737976 33.87389909 1.5253981 37.54233773 1.5859375 41.2109375 C1.59748871 42.35992523 1.60903992 43.50891296 1.62094116 44.69271851 C1.64081085 45.7536673 1.66068054 46.81461609 1.68115234 47.90771484 C1.69447601 48.84481293 1.70779968 49.78191101 1.7215271 50.74740601 C1.79034466 53.20035151 1.79034466 53.20035151 4 55 C9.81611483 55.47224864 14.14331002 54.59823398 19.5 52.25 C20.14928467 51.97849121 20.79856934 51.70698242 21.4675293 51.42724609 C26.08195804 49.47381037 30.538783 47.27434592 35 45 C35.66 45 36.32 45 37 45 C37 45.66 37 46.32 37 47 C33.93869165 48.46084431 30.87574712 49.91822602 27.8125 51.375 C26.51602539 51.99375 26.51602539 51.99375 25.19335938 52.625 C24.35224609 53.02460938 23.51113281 53.42421875 22.64453125 53.8359375 C21.87471924 54.20251465 21.10490723 54.5690918 20.31176758 54.94677734 C12.9623472 58.29511397 12.9623472 58.29511397 9 58.375 C8.360625 58.40335937 7.72125 58.43171875 7.0625 58.4609375 C3.61833825 57.69121953 2.36460976 56.6917658 0 54 C-0.72719843 49.93722567 -0.57979309 45.91224716 -0.48828125 41.796875 C-0.48120651 40.60394836 -0.47413177 39.41102173 -0.46684265 38.1819458 C-0.43884739 34.37066016 -0.37609402 30.56084186 -0.3125 26.75 C-0.28742401 24.16668788 -0.26460963 21.58335274 -0.24414062 19 C-0.18900356 12.66616576 -0.10532385 6.3331877 0 0 Z " fill="#AFAFAF" transform="translate(197,260)"/>
<path d="M0 0 C0.33 0 0.66 0 1 0 C1.03738281 1.17433594 1.07476562 2.34867188 1.11328125 3.55859375 C2.11457665 29.85085051 7.37040442 52.15558825 27 71 C21.09551243 70.08241071 17.6640652 65.37518311 14 61 C5.74715237 49.12179431 -0.16962172 34.43320933 -0.09765625 19.82421875 C-0.09443359 18.66728516 -0.09121094 17.51035156 -0.08789062 16.31835938 C-0.07951172 15.12017578 -0.07113281 13.92199219 -0.0625 12.6875 C-0.05798828 11.46998047 -0.05347656 10.25246094 -0.04882812 8.99804688 C-0.03706578 5.99864774 -0.02062826 2.99934911 0 0 Z " fill="#EFEFEF" transform="translate(58,148)"/>
<path d="M0 0 C4.28364143 0.60065821 7.3589408 2.16278647 11.125 4.25 C18.99964236 8.41753936 27.24010155 10.44552366 35.86669922 12.47900391 C38.93931447 13.22939999 41.96598766 14.10716814 45 15 C34.4056937 18.53143543 20.06832169 11.68870383 10.5625 7 C9.86342529 6.65565918 9.16435059 6.31131836 8.4440918 5.95654297 C5.15349486 4.28216145 2.51188285 2.69563259 0 0 Z " fill="#BCBCBC" transform="translate(83,219)"/>
<path d="M0 0 C7.38410475 5.04280324 11.0218112 12.74637987 14.75390625 20.68359375 C17.99154398 27.54821683 20.6670602 32.60571524 27 37 C25.515 37.495 25.515 37.495 24 38 C18.11608871 33.09674059 15.22032882 27.92380837 11.99560547 21.13574219 C9.50127171 15.90431713 6.66759421 11.06030389 3.4453125 6.234375 C2.13308784 4.2057466 1.0310304 2.18218086 0 0 Z " fill="#EEEEEE" transform="translate(53,238)"/>
<path d="M0 0 C0.66 0 1.32 0 2 0 C0.46500269 4.1636802 -2.55747646 6.31364834 -6 8.875 C-6.5772583 9.31118652 -7.1545166 9.74737305 -7.74926758 10.19677734 C-20.90794353 20 -20.90794353 20 -25 20 C-25 19.34 -25 18.68 -25 18 C-22.90149354 16.54253586 -20.80624662 15.19801912 -18.625 13.875 C-12.06621846 9.79152984 -5.48951825 5.48951825 0 0 Z " fill="#E8E8E8" transform="translate(259,286)"/>
<path d="M0 0 C5.17331178 0.53164469 9.02170934 3.11671579 13.375 5.75 C14.10460937 6.18054688 14.83421875 6.61109375 15.5859375 7.0546875 C20.23012463 9.8246134 24.64000053 12.80190013 29 16 C28.67 16.99 28.34 17.98 28 19 C27.36835938 18.5153125 26.73671875 18.030625 26.0859375 17.53125 C20.16161886 13.09227926 14.18707528 9.22964253 7.68505859 5.703125 C4.73108036 4.08284903 2.21224153 2.56778035 0 0 Z " fill="#D1D1D1" transform="translate(224,16)"/>
<path d="M0 0 C0.99 0.33 1.98 0.66 3 1 C2.52949219 1.66644531 2.05898437 2.33289063 1.57421875 3.01953125 C-2.80409627 9.50088786 -5.44322768 15.33474964 -7 23 C-7.33 23 -7.66 23 -8 23 C-9.02576804 14.11001036 -4.83177215 7.24765822 0 0 Z " fill="#EAEAEA" transform="translate(128,234)"/>
<path d="M0 0 C1.2328864 3.53317111 0.74551753 5.76738911 -0.3125 9.3125 C-0.59609375 10.27929688 -0.8796875 11.24609375 -1.171875 12.2421875 C-1.44515625 13.15226562 -1.7184375 14.06234375 -2 15 C-2.35565977 16.31209619 -2.71009969 17.62452464 -3.0625 18.9375 C-3.84422516 21.49113551 -4.69986892 23.67833736 -6 26 C-7.12480322 22.65430873 -6.86109454 20.64953176 -5.8203125 17.3046875 C-5.55089844 16.42425781 -5.28148437 15.54382813 -5.00390625 14.63671875 C-4.71386719 13.72535156 -4.42382812 12.81398438 -4.125 11.875 C-3.84269531 10.95589844 -3.56039063 10.03679687 -3.26953125 9.08984375 C-1.19148166 2.38296332 -1.19148166 2.38296332 0 0 Z " fill="#929292" transform="translate(11,102)"/>
<path d="M0 0 C0.66 0.33 1.32 0.66 2 1 C0.29963138 2.92426057 -1.40967409 4.83914471 -3.125 6.75 C-3.599375 7.28882813 -4.07375 7.82765625 -4.5625 8.3828125 C-7.75719981 11.92288526 -10.92897015 14.5114773 -15 17 C-13.67879172 14.06769807 -12.25361803 12.01335101 -9.9609375 9.765625 C-9.38085938 9.19199219 -8.80078125 8.61835938 -8.203125 8.02734375 C-7.59984375 7.44082031 -6.9965625 6.85429687 -6.375 6.25 C-5.76398438 5.64800781 -5.15296875 5.04601562 -4.5234375 4.42578125 C-3.02011376 2.94594695 -1.51065144 1.47235324 0 0 Z " fill="#EEEEEE" transform="translate(276,270)"/>
<path d="M0 0 C0.66 0 1.32 0 2 0 C3.08067776 1.62850055 4.08860872 3.30547522 5.0625 5 C8.59434511 10.75973897 12.72977274 14.82923058 18 19 C17.01 19.33 16.02 19.66 15 20 C9.10456563 14.41364665 3.85432222 9.1947348 0 2 C0 1.34 0 0.68 0 0 Z " fill="#E9E9E9" transform="translate(67,199)"/>
<path d="M0 0 C0.33 0.66 0.66 1.32 1 2 C0.22729492 3.95532227 0.22729492 3.95532227 -1.01953125 6.31640625 C-1.46490234 7.16267578 -1.91027344 8.00894531 -2.36914062 8.88085938 C-2.84544922 9.76580078 -3.32175781 10.65074219 -3.8125 11.5625 C-4.27720703 12.45130859 -4.74191406 13.34011719 -5.22070312 14.25585938 C-8.73611201 20.86805601 -8.73611201 20.86805601 -11 22 C-10.44033792 16.92306543 -8.01598406 13.08091993 -5.5 8.75 C-5.08363281 8.0178125 -4.66726563 7.285625 -4.23828125 6.53125 C-1.17106331 1.17106331 -1.17106331 1.17106331 0 0 Z " fill="#EEEEEE" transform="translate(302,230)"/>
<path d="M0 0 C1.37478516 0.01740234 1.37478516 0.01740234 2.77734375 0.03515625 C3.69644531 0.04417969 4.61554687 0.05320313 5.5625 0.0625 C6.27277344 0.07410156 6.98304687 0.08570313 7.71484375 0.09765625 C7.71484375 0.42765625 7.71484375 0.75765625 7.71484375 1.09765625 C4.74484375 1.75765625 1.77484375 2.41765625 -1.28515625 3.09765625 C0.90802247 7.48401369 2.62835004 8.6102253 6.71484375 11.09765625 C6.38484375 12.08765625 6.05484375 13.07765625 5.71484375 14.09765625 C2.41484375 11.12765625 -0.88515625 8.15765625 -4.28515625 5.09765625 C-3.0432556 0.13005366 -3.0432556 0.13005366 0 0 Z " fill="#DADADA" transform="translate(46.28515625,225.90234375)"/>
<path d="M0 0 C4.34488013 2.75906335 8.08517314 5.73747755 11.875 9.25 C13.32519531 10.58804688 13.32519531 10.58804688 14.8046875 11.953125 C15.89136719 12.96632813 15.89136719 12.96632813 17 14 C16.67 14.99 16.34 15.98 16 17 C15.26394531 16.25234375 14.52789062 15.5046875 13.76953125 14.734375 C12.78399056 13.73944821 11.79830579 12.74466412 10.8125 11.75 C10.32974609 11.25886719 9.84699219 10.76773438 9.34960938 10.26171875 C7.0230707 7.91956572 4.74813011 5.80345215 2.13671875 3.765625 C1.43160156 3.18296875 0.72648438 2.6003125 0 2 C0 1.34 0 0.68 0 0 Z " fill="#D7D7D7" transform="translate(253,33)"/>
<path d="M0 0 C4.47614037 0.6212134 8.15539431 2.38584064 12.125 4.4375 C12.74503906 4.75009766 13.36507812 5.06269531 14.00390625 5.38476562 C16.7861411 6.79981625 19.39951435 8.2663429 22 10 C14.16561466 9.70436282 6.97425601 6.69341993 1.17578125 1.3046875 C0.78777344 0.87414062 0.39976563 0.44359375 0 0 Z " fill="#D1D1D1" transform="translate(83,219)"/>
<path d="M0 0 C0.66 0 1.32 0 2 0 C0.58768539 3.35882075 -1.03368978 5.13329047 -3.9375 7.3125 C-4.97197266 8.11107422 -4.97197266 8.11107422 -6.02734375 8.92578125 C-6.67832031 9.28027344 -7.32929688 9.63476562 -8 10 C-8.99 9.67 -9.98 9.34 -11 9 C-9.93458984 8.15115234 -9.93458984 8.15115234 -8.84765625 7.28515625 C-7.92855469 6.55167969 -7.00945312 5.81820313 -6.0625 5.0625 C-5.14597656 4.33160156 -4.22945312 3.60070312 -3.28515625 2.84765625 C-1.59148731 1.48061289 -1.59148731 1.48061289 0 0 Z " fill="#DFDFDF" transform="translate(259,286)"/>
<path d="M0 0 C0.33 0 0.66 0 1 0 C1.2097564 5.76830091 1.11567168 11.54677139 -1 17 C-1.99 17.66 -2.98 18.32 -4 19 C-3.566875 17.081875 -3.566875 17.081875 -3.125 15.125 C-2.00617536 10.09828073 -0.9916404 5.05314632 0 0 Z " fill="#9A9A9A" transform="translate(256,174)"/>
<path d="M0 0 C0.33 0.99 0.66 1.98 1 3 C-1.99738941 4.99825961 -2.63347508 5.27550398 -6 5.25 C-6.680625 5.25515625 -7.36125 5.2603125 -8.0625 5.265625 C-10 5 -10 5 -13 3 C-12.22914062 2.95101563 -11.45828125 2.90203125 -10.6640625 2.8515625 C-9.66117187 2.77679688 -8.65828125 2.70203125 -7.625 2.625 C-6.62726563 2.55539062 -5.62953125 2.48578125 -4.6015625 2.4140625 C-1.84491121 2.23636036 -1.84491121 2.23636036 0 0 Z " fill="#D7D7D7" transform="translate(117,313)"/>
<path d="M0 0 C1.46534385 3.80989402 0.55203911 6.3241179 -1 10 C-1.99 10.495 -1.99 10.495 -3 11 C-2.69078116 9.54096742 -2.37751201 8.08279278 -2.0625 6.625 C-1.88847656 5.81289062 -1.71445313 5.00078125 -1.53515625 4.1640625 C-1 2 -1 2 0 0 Z " fill="#A7A7A7" transform="translate(11,102)"/>
<path d="M0 0 C6.42857143 4.14285714 6.42857143 4.14285714 9 7 C8.67 7.66 8.34 8.32 8 9 C6.66079162 7.88200014 5.32877444 6.75538103 4 5.625 C2.88625 4.68527344 2.88625 4.68527344 1.75 3.7265625 C1.1725 3.15679687 0.595 2.58703125 0 2 C0 1.34 0 0.68 0 0 Z " fill="#E6E6E6" transform="translate(253,33)"/>
<path d="M0 0 C1.98 1.65 3.96 3.3 6 5 C5.67 5.99 5.34 6.98 5 8 C2.5 5.6875 2.5 5.6875 0 3 C0 2.01 0 1.02 0 0 Z " fill="#E3E3E3" transform="translate(270,48)"/>
</svg>
