<?xml version="1.0" encoding="UTF-8"?>
<svg version="1.1" xmlns="http://www.w3.org/2000/svg" width="512" height="512">
<path d="M0 0 C1.24350723 0.00141495 2.48701447 0.0028299 3.76820374 0.00428772 C7.58638353 0.00970803 11.40449543 0.0222183 15.22265625 0.03515625 C17.87565017 0.04019471 20.52864505 0.04475336 23.18164062 0.04882812 C29.54952379 0.05875004 35.91726777 0.07835312 42.28515625 0.09765625 C42.61515625 15.60765625 42.94515625 31.11765625 43.28515625 47.09765625 C47.24515625 43.46765625 51.20515625 39.83765625 55.28515625 36.09765625 C73.85977835 20.54064565 95.15233988 8.89967541 119.28515625 5.09765625 C119.99027344 4.98550781 120.69539062 4.87335938 121.421875 4.7578125 C150.06737694 1.10838555 184.70273328 5.23114712 208.28515625 23.09765625 C223.63507091 35.45451013 232.94005995 50.82122903 237.28515625 70.09765625 C237.45459181 70.834538 237.62402737 71.57141975 237.79859734 72.33063126 C239.87345444 82.76835474 239.55060628 93.24744328 239.51220703 103.83886719 C239.51164214 106.02780146 239.511961 108.21673611 239.51309204 110.40567017 C239.5136635 116.31802774 239.50194276 122.2303034 239.48794413 128.14264202 C239.47540219 134.3325782 239.47426354 140.52251646 239.47189331 146.71246338 C239.4656887 158.42060055 239.4492917 170.12870017 239.42919433 181.83682084 C239.40680357 195.17178662 239.39583392 208.50675115 239.38580346 221.84173155 C239.36492456 249.2603939 239.32976844 276.67902297 239.28515625 304.09765625 C233.74037182 304.87677538 228.35300666 305.25988897 222.7578125 305.30297852 C221.94709793 305.31287811 221.13638336 305.32277771 220.30110168 305.33297729 C217.64998182 305.36429437 214.9988441 305.38923048 212.34765625 305.4140625 C210.49820519 305.43465783 208.64875856 305.45565494 206.79931641 305.47703552 C201.95297863 305.53198998 197.10660027 305.58151567 192.26019287 305.62988281 C187.30623806 305.68029337 182.35234154 305.73587694 177.3984375 305.79101562 C167.69406031 305.89827107 157.98963232 305.99978723 148.28515625 306.09765625 C148.2827679 305.20350447 148.28037954 304.30935268 148.27791882 303.38810539 C148.21866499 281.58545236 148.14304875 259.78290891 148.04944134 237.98037529 C148.00456316 227.43663409 147.96513024 216.89292607 147.9387207 206.34912109 C147.91567586 197.15424928 147.88220583 187.95948316 147.83645469 178.76469529 C147.81260968 173.90056765 147.79382393 169.03654412 147.78754234 164.17235947 C147.7814518 159.58405726 147.76131034 154.99602113 147.73088074 150.40781784 C147.72216365 148.73343257 147.71836462 147.05901242 147.72014809 145.38460541 C147.73131537 130.04781968 146.70102454 113.93229161 136.24609375 101.71484375 C125.13969378 91.07938654 110.75920439 89.71490891 96.03515625 89.78515625 C94.24597778 89.79144043 94.24597778 89.79144043 92.4206543 89.79785156 C80.8594733 89.94620335 67.68692546 90.47411044 58.61328125 98.59375 C46.5567021 111.51577666 46.83473141 131.36855913 46.8527832 148.00024414 C46.84373797 149.71702262 46.83340414 151.43379471 46.82189941 153.15055847 C46.79462697 157.75272849 46.78508599 162.35477502 46.77904534 166.95701528 C46.7695831 171.7883222 46.74337421 176.61953963 46.71903992 181.45079041 C46.67558515 190.57335943 46.64690968 199.69591088 46.62371653 208.81855148 C46.59655131 219.21541432 46.55264739 229.61218619 46.50742781 240.00898373 C46.41488309 261.37182544 46.34306514 282.73469438 46.28515625 304.09765625 C15.43722018 307.18244986 -15.71305169 305.09765625 -46.71484375 305.09765625 C-46.71484375 204.77765625 -46.71484375 104.45765625 -46.71484375 1.09765625 C-11.08741224 -0.05161573 -11.08741224 -0.05161573 0 0 Z " fill="#000000" transform="translate(246.71484375,175.90234375)"/>
<path d="M0 0 C0 100.32 0 200.64 0 304 C-30.73181486 310.14636297 -62.6615534 305.64788262 -94 306 C-94 205.35 -94 104.7 -94 1 C-62.69446905 -0.36111004 -31.33510633 0 0 0 Z " fill="#000000" transform="translate(123,176)"/>
<path d="M0 0 C0.63164063 0.45117188 1.26328125 0.90234375 1.9140625 1.3671875 C11.43343798 8.78978424 18.25836894 21.09005833 20 33 C21.10172128 50.3385644 17.55156911 64.55817413 6 78 C-5.51769882 88.412285 -18.40286083 93.30653337 -34 93 C-45.87204707 92.16352697 -56.01213817 87.74220934 -65 80 C-65.89138672 79.24976562 -65.89138672 79.24976562 -66.80078125 78.484375 C-76.36619561 69.74612508 -81.31255771 58.09166633 -82.27734375 45.33203125 C-82.65038708 30.6938108 -79.10027295 16.76155555 -68.94140625 5.75390625 C-49.62569857 -11.69630049 -21.70635574 -16.05786168 0 0 Z " fill="#000000" transform="translate(108,40)"/>
</svg>
