<?xml version="1.0" encoding="UTF-8"?>
<svg version="1.1" xmlns="http://www.w3.org/2000/svg" width="980" height="804">
<path d="M0 0 C1.17151611 0.24943359 1.17151611 0.24943359 2.36669922 0.50390625 C38.17459485 8.43998819 68.60473151 27.68303701 96.25 51.0625 C96.84224365 51.55403564 97.4344873 52.04557129 98.04467773 52.55200195 C100.88238532 54.95839387 103.12858898 57.16921807 105.3984375 60.15625 C107.79804957 63.28837522 109.47716783 65.19902767 113 67 C119.88911045 67.32425463 126.63861483 64.29190779 133 62 C135.0932962 61.29682471 137.18706238 60.59504725 139.28125 59.89453125 C156.51997451 53.95371886 172.76796801 46.2193541 189 38 C190.09618652 37.44908691 191.19237305 36.89817383 192.32177734 36.33056641 C208.8829485 27.98345498 225.03160471 18.95671356 240.84033203 9.25732422 C241.73993652 8.70705566 242.63954102 8.15678711 243.56640625 7.58984375 C244.37150635 7.09218506 245.17660645 6.59452637 246.00610352 6.08178711 C248 5 248 5 250 5 C249.35780448 33.19822159 237.40884481 61.86523009 219 83 C217.90171875 84.26263672 217.90171875 84.26263672 216.78125 85.55078125 C214.55278481 88.06543632 212.28891343 90.54033281 210 93 C209.38769531 93.66644531 208.77539062 94.33289063 208.14453125 95.01953125 C199.64391484 103.91889725 189.43184346 111.07445982 179.4375 118.1875 C178.79047119 118.64995117 178.14344238 119.11240234 177.47680664 119.58886719 C171.16831553 124.02106235 164.58815711 128.00214486 158 132 C159.27939453 132.05534912 160.55878906 132.11069824 161.87695312 132.16772461 C166.70042551 132.37680542 171.52380797 132.58790414 176.34716797 132.79956055 C178.42038677 132.89026588 180.49362845 132.98045019 182.56689453 133.07006836 C202.31423896 133.92429133 202.31423896 133.92429133 211.9375 134.5546875 C231.81634104 135.84763065 251.06514013 134.83758829 270 128 C269.05487232 133.74952673 264.65176669 137.69568393 261 142 C260.06027344 143.10988281 260.06027344 143.10988281 259.1015625 144.2421875 C248.10010988 156.80906421 236.17293335 168.72957739 223 179 C221.18425941 180.53784865 219.37196997 182.07977808 217.5625 183.625 C204.02919959 194.91733993 189.57239934 205.10798694 175.25732422 215.37646484 C172.89724869 217.07390182 170.54361159 218.77995715 168.19140625 220.48828125 C167.39557129 221.06562012 166.59973633 221.64295898 165.77978516 222.23779297 C164.27730267 223.32808722 162.77560409 224.41946304 161.27490234 225.51220703 C160.58477051 226.01220215 159.89463867 226.51219727 159.18359375 227.02734375 C158.54704865 227.49808823 157.91050354 227.9688327 157.25466919 228.45384216 C155 230 155 230 152.65881348 231.20152283 C147.81878284 233.80845984 147.81878284 233.80845984 145.18678284 238.42863464 C144.89259329 241.45762867 144.88395363 244.37197827 144.97265625 247.4140625 C144.96687057 249.08579781 144.96687057 249.08579781 144.96096802 250.79130554 C144.95747603 253.17094947 144.97403836 255.55069283 145.00888062 257.93008423 C145.08076236 262.88346083 145.05493527 267.83487201 145.03553772 272.78858948 C145.02750087 275.22513181 145.02464403 277.66169698 145.02708435 280.09825134 C145.03860668 292.80705399 144.30854608 305.35763479 143 318 C142.87786133 319.22605957 142.75572266 320.45211914 142.62988281 321.71533203 C135.82497857 388.27322717 118.01087361 452.69140936 89 513 C88.59749023 513.84739746 88.19498047 514.69479492 87.78027344 515.56787109 C80.9785952 529.84138475 73.1429685 543.45448509 65 557 C64.54625 557.75796875 64.0925 558.5159375 63.625 559.296875 C53.830373 575.58044239 42.7958004 591.10987872 31 606 C30.02546875 607.24716797 30.02546875 607.24716797 29.03125 608.51953125 C25.18819466 613.39422645 21.21475703 618.15233795 17.1875 622.875 C16.73842285 623.40343506 16.2893457 623.93187012 15.82666016 624.47631836 C7.13627437 634.59903636 -2.05054134 644.21660242 -11.4987793 653.62915039 C-13.20023778 655.32519726 -14.89621263 657.02659821 -16.59179688 658.72851562 C-22.22519246 664.36565347 -27.90197814 669.86072609 -34 675 C-35.02169796 675.88832946 -36.04257689 676.77760209 -37.0625 677.66796875 C-44.75652464 684.26723191 -52.69778793 690.4414519 -60.87011719 696.43652344 C-62.30302364 697.4883727 -63.73332432 698.54378003 -65.16113281 699.60253906 C-107.23909337 730.79988566 -154.38353896 754.43791503 -204 771 C-205.13131348 771.3810791 -206.26262695 771.7621582 -207.42822266 772.15478516 C-250.73967362 786.60424861 -295.62411511 794.68922221 -341 799 C-342.21848633 799.11859375 -343.43697266 799.2371875 -344.69238281 799.359375 C-436.71436546 807.90300202 -522.12099367 788.96340058 -605 749 C-606.61962646 748.21906982 -606.61962646 748.21906982 -608.27197266 747.42236328 C-622.8195648 740.36423811 -637.01999002 732.8220964 -651.01367188 724.72412109 C-654.18444111 722.89351511 -657.36487694 721.08054218 -660.546875 719.26953125 C-672.90139259 712.21880707 -685.08190937 704.97382611 -697.03320312 697.25878906 C-698.88020982 696.07666809 -700.73990555 694.91961278 -702.609375 693.7734375 C-704.13304687 692.83371094 -704.13304687 692.83371094 -705.6875 691.875 C-706.96173828 691.09769531 -706.96173828 691.09769531 -708.26171875 690.3046875 C-709.12216797 689.65886719 -709.12216797 689.65886719 -710 689 C-710 688.34 -710 687.68 -710 687 C-708.71480469 687.144375 -707.42960938 687.28875 -706.10546875 687.4375 C-672.15799991 690.81661397 -636.92797988 690.46014305 -603 687 C-602.35278992 686.93447937 -601.70557983 686.86895874 -601.03875732 686.80145264 C-538.45569658 680.41221495 -476.08099206 664.67618249 -424 628 C-422.19285569 626.73546647 -420.38555678 625.47115386 -418.578125 624.20703125 C-417.05199602 623.13814549 -415.52592401 622.06917835 -414 621 C-414.77150391 620.96559814 -415.54300781 620.93119629 -416.33789062 620.89575195 C-469.33510186 618.38080189 -522.10533747 608.58389843 -562 571 C-562.66386719 570.40058594 -563.32773437 569.80117188 -564.01171875 569.18359375 C-579.49752005 554.6401333 -590.74048176 534.13964771 -597 514 C-597 513.01 -597 512.02 -597 511 C-595.87730713 511.01571045 -594.75461426 511.0314209 -593.59790039 511.04760742 C-589.34667422 511.10279132 -585.09547808 511.13666424 -580.84399414 511.16479492 C-579.02004639 511.17968364 -577.19613311 511.20000135 -575.37231445 511.22631836 C-555.06333692 511.51157252 -538.66742666 508.43470865 -520.109375 499.83203125 C-518.95920898 499.29940674 -517.80904297 498.76678223 -516.62402344 498.21801758 C-515.7580957 497.81607178 -514.89216797 497.41412598 -514 497 C-514.8029248 496.8047876 -515.60584961 496.6095752 -516.43310547 496.40844727 C-573.43069008 482.43257144 -632.27648443 459.32151458 -665.1875 407.6875 C-679.12044081 384.0955266 -686.5333735 358.50165953 -686 331 C-677.81708474 331.80732781 -669.97362857 333.80994035 -661.99414062 335.74023438 C-639.073318 341.17701573 -618.08305787 342.01773782 -595.34765625 335.41015625 C-590.25807749 333.95453115 -585.27416221 333.32574234 -580 333 C-580.52319824 332.62302979 -581.04639648 332.24605957 -581.58544922 331.85766602 C-599.75324178 318.72848787 -599.75324178 318.72848787 -606.69921875 312.16015625 C-608.67546369 310.30470048 -610.69006538 308.53159554 -612.7421875 306.76171875 C-623.73894826 297.17293177 -634.21293431 286.66164481 -643 275 C-643.42442383 274.44666992 -643.84884766 273.89333984 -644.28613281 273.32324219 C-660.09440889 252.67501198 -672.99011524 229.6030008 -679.75 204.375 C-679.94875732 203.63596436 -680.14751465 202.89692871 -680.35229492 202.13549805 C-683.40307001 190.15339253 -684.37739159 178.32886902 -684.3125 166 C-684.31067719 165.27833649 -684.30885437 164.55667297 -684.30697632 163.81314087 C-684.2555787 151.676438 -683.48093192 139.90163601 -681 128 C-680.83371094 127.18885742 -680.66742187 126.37771484 -680.49609375 125.54199219 C-676.07771822 104.70198762 -668.43929867 85.52547673 -658 67 C-655 67 -655 67 -652.984375 68.90625 C-652.24703125 69.7621875 -651.5096875 70.618125 -650.75 71.5 C-650.02296875 72.3353125 -649.2959375 73.170625 -648.546875 74.03125 C-647.20686303 75.59322714 -645.86784956 77.15609554 -644.53808594 78.72680664 C-639.69163493 84.37592391 -634.51063825 89.67552275 -629.24951172 94.93579102 C-627.76106763 96.42641615 -626.28082723 97.92487017 -624.80078125 99.42382812 C-618.52732407 105.73363979 -611.97210908 111.45735205 -605 117 C-603.97240151 117.86333059 -602.94898628 118.7317211 -601.93359375 119.609375 C-574.54925682 143.09390808 -542.62249657 162.17800166 -510.23779297 177.90771484 C-507.79883698 179.09818932 -505.3705953 180.30926075 -502.94140625 181.51953125 C-487.30001917 189.23598619 -471.26730624 195.75239528 -455 202 C-453.97277832 202.39928711 -452.94555664 202.79857422 -451.88720703 203.20996094 C-379.92601285 231.01068364 -293.48963678 250.60692795 -216 249 C-216.14002441 248.40058594 -216.28004883 247.80117187 -216.42431641 247.18359375 C-218.63083632 236.21147352 -218.39713972 225.14761736 -218.375 214 C-218.37412384 212.92964508 -218.37324768 211.85929016 -218.37234497 210.75650024 C-218.26437064 170.78395599 -210.05100424 132.37020016 -191 97 C-190.64824707 96.33661621 -190.29649414 95.67323242 -189.93408203 94.98974609 C-178.67315772 73.83945275 -163.68281993 53.15596106 -145 38 C-143.99453125 37.16855469 -142.9890625 36.33710937 -141.953125 35.48046875 C-102.36023356 3.20346826 -50.35972451 -10.75130912 0 0 Z " fill="#010101" transform="translate(710,3)"/>
<path d="M0 0 C0.66 0.33 1.32 0.66 2 1 C-4.27 7.27 -10.54 13.54 -17 20 C-17.66 19.67 -18.32 19.34 -19 19 C-14.15525095 13.42629565 -9.2883966 8.13125855 -3.62890625 3.375 C-1.89099423 1.94714425 -1.89099423 1.94714425 0 0 Z " fill="#666666" transform="translate(567,39)"/>
</svg>
